<svg xmlns="http://www.w3.org/2000/svg" width="27" height="24" viewBox="0 0 27 24" fill="none">
  <path d="M19.3797 21.2192C19.0844 21.2192 18.8011 21.1017 18.5923 20.8924C18.3835 20.6832 18.2662 20.3994 18.2662 20.1035H16.0391C16.0391 20.9912 16.391 21.8426 17.0175 22.4703C17.644 23.098 18.4937 23.4506 19.3797 23.4506C20.2657 23.4506 21.1154 23.098 21.7419 22.4703C22.3684 21.8426 22.7203 20.9912 22.7203 20.1035H20.4932C20.4932 20.3994 20.3759 20.6832 20.1671 20.8924C19.9583 21.1017 19.675 21.2192 19.3797 21.2192Z" fill="currentColor"></path>
  <path d="M11.5425 21.2192C11.2472 21.2192 10.9639 21.1017 10.7551 20.8924C10.5463 20.6832 10.4289 20.3994 10.4289 20.1035H8.19141C8.19141 20.5437 8.27794 20.9796 8.44607 21.3863C8.6142 21.7929 8.86062 22.1625 9.17128 22.4737C9.48194 22.785 9.85075 23.0319 10.2566 23.2003C10.6625 23.3688 11.0976 23.4555 11.5369 23.4555C11.9763 23.4555 12.4113 23.3688 12.8172 23.2003C13.2231 23.0319 13.5919 22.785 13.9025 22.4737C14.2132 22.1625 14.4596 21.7929 14.6278 21.3863C14.7959 20.9796 14.8824 20.5437 14.8824 20.1035H12.6553C12.6553 20.3993 12.5381 20.683 12.3294 20.8922C12.1207 21.1014 11.8377 21.219 11.5425 21.2192Z" fill="currentColor"></path>
  <path d="M26.0699 2.76057C26.0092 2.75022 25.9477 2.74509 25.8862 2.74523H8.06945C7.77412 2.74523 7.49089 2.86278 7.28205 3.07201C7.07322 3.28124 6.95591 3.56502 6.95591 3.86092C6.95591 4.15682 7.07322 4.4406 7.28205 4.64984C7.49089 4.85907 7.77412 4.97662 8.06945 4.97662H24.5715L24.2771 6.74638L22.7161 16.1335H8.18985L4.4038 6.74638L2.14539 1.19581C2.02596 0.934695 1.81062 0.729787 1.54419 0.623743C1.27777 0.5177 0.980789 0.518691 0.715076 0.626511C0.449363 0.734331 0.23539 0.940672 0.117698 1.20258C5.8841e-06 1.46449 -0.012336 1.76179 0.0832412 2.03258L3.68904 10.8975L6.14998 17.4326C6.33162 17.9828 6.70675 18.3649 7.24821 18.3649H23.6591C23.9228 18.3651 24.178 18.2714 24.3792 18.1007C24.5804 17.93 24.7147 17.6932 24.758 17.4326L26.5355 6.74638L26.9851 4.04431C27.0336 3.75249 26.9644 3.45331 26.7928 3.21257C26.6212 2.97184 26.3612 2.80925 26.0699 2.76057Z" fill="currentColor"></path>
</svg>