<svg width="20" height="30" viewBox="0 0 20 30" fill="none" xmlns="http://www.w3.org/2000/svg">
<path d="M8.7001 3.3999C6.3001 3.3999 4.3001 4.1999 2.6001 5.8999C0.900098 7.5999 0.100098 9.5999 0.100098 11.8999C0.100098 14.1999 0.900098 16.2999 2.6001 17.8999C4.3001 19.4999 6.3001 20.3999 8.7001 20.3999C11.1001 20.3999 13.0001 19.5999 14.7001 17.8999C16.4001 16.1999 17.2001 14.1999 17.2001 11.8999C17.2001 9.5999 16.4001 7.5999 14.7001 5.8999C13.1001 4.1999 11.1001 3.3999 8.7001 3.3999ZM12.1001 15.3999C11.2001 16.2999 10.1001 16.7999 8.7001 16.7999C7.3001 16.7999 6.2001 16.2999 5.3001 15.3999C4.4001 14.4999 3.9001 13.2999 3.9001 11.8999C3.9001 10.4999 4.4001 9.2999 5.3001 8.3999C6.2001 7.4999 7.3001 6.9999 8.7001 6.9999C10.1001 6.9999 11.2001 7.4999 12.1001 8.3999C13.0001 9.2999 13.5001 10.4999 13.5001 11.8999C13.5001 13.2999 13.1001 14.4999 12.1001 15.3999Z" fill="#111111"/>
<path d="M12.2 24.9999C11.3 25.8999 10.1 26.3999 8.7 26.3999C7.3 26.3999 6.2 25.8999 5.2 24.9999C4.3 24.0999 3.8 22.8999 3.8 21.3999H0C0 23.7999 0.8 25.7999 2.5 27.4999C4.3 29.1999 6.3 29.9999 8.7 29.9999C11.1 29.9999 13.1 29.1999 14.8 27.4999C16.5 25.7999 17.3 23.7999 17.3 21.3999H13.5C13.6 22.8999 13.1 23.9999 12.2 24.9999Z" fill="#111111"/>
<path d="M17.4 5.29995C18.7 5.29995 19.8 4.29995 19.8 2.99995C19.8 1.69995 18.7 0.699951 17.4 0.699951C16.1 0.699951 15 1.59995 15 2.89995C15 4.19995 16.1 5.29995 17.4 5.29995Z" fill="#111111"/>
</svg>
